# xmcd
#
# Track frame offsets:
#	150
#	14543
#	29468
#	46197
#	62084
#	77147
#	93197
#	107219
#	124924
#	140916
#	157685
#	173242
#	188691
#	206696
#	223995
#	238313
#	256114
#	269196
#
# Disc length: 3828 seconds
#
# Revision: 1
# Processed by: cddbd v1.5.1PL2 Copyright (c) Steve Scherf et al.
# Submitted via: audiograbber 1.83.01
#
DISCID=0c0ef212
DTITLE=Top Tunes - TT127
DYEAR=1900
DGENRE=
TTITLE0=Vassar, Phil - American Child
TTITLE1=Pinmonkey - Barbs And Roses
TTITLE2=Diamond Rio - Beautiful Mess
TTITLE3=Keith, Toby - Courtesy Of The Red White And Blue (Angry American)
TTITLE4=Azar, Steve - I Don't Have To Be Me Until Monday
TTITLE5=Worley, Darryl - I Miss My Friend
TTITLE6=Emerson Drive - I Should Be Sleeping
TTITLE7=Smith, Anthony - If That Ain't Country
TTITLE8=Trick Pony - Just What I Do
TTITLE9=Shelton, Blake - Ol Red
TTITLE10=Williams, Hank Jr and Kid Rock - The F Word
TTITLE11=Chesney, Kenny - The Good Stuff
TTITLE12=Nichols, Joe - The Impossible
TTITLE13=Allen, Gary - The One
TTITLE14=Griggs, Andy - Tonight I Want To Be Your Man
TTITLE15=McGraw, Tim - Unbroken
TTITLE16=Stampley, Tony - Waste Of Good Whiskey
TTITLE17=Jackson, Alan - Work In Progress
EXTD=
EXTT0=
EXTT1=
EXTT2=
EXTT3=
EXTT4=
EXTT5=
EXTT6=
EXTT7=
EXTT8=
EXTT9=
EXTT10=
EXTT11=
EXTT12=
EXTT13=
EXTT14=
EXTT15=
EXTT16=
EXTT17=
PLAYORDER=
